<?xml version="1.0" encoding="utf-8"?>
<!-- Generator: Adobe Illustrator 22.1.0, SVG Export Plug-In . SVG Version: 6.00 Build 0)  -->
<svg version="1.1" id="Capa_1" xmlns="http://www.w3.org/2000/svg" xmlns:xlink="http://www.w3.org/1999/xlink" x="0px" y="0px"
	 viewBox="0 0 496 496" style="enable-background:new 0 0 496 496;" xml:space="preserve">
<style type="text/css">
	.st0{fill:#666666;}
	.st1{fill:#00B4F0;}
</style>
<g>
	<g>
		<g>
			<path class="st0" d="M374,250.1l26.7-26.7l-56.6-56.6l-26.7,26.7c-9.3-5.2-19.2-9.2-29.4-12.1v-37.1c25.8-13.9,40-36.7,40-64.8
				c0-33.8-21.4-64.1-53.3-75.4L264,0.4v65.4l-16,5.3l-16-5.3V0.4l-10.7,3.8C189.4,15.5,168,45.8,168,79.6c0,28,14.2,50.9,40,64.8
				v37.1c-10.2,3-20.1,7-29.4,12.1l-26.7-26.7l-56.6,56.6l26.7,26.7c-5.2,9.3-9.2,19.2-12.2,29.4H72v80h37.8
				c3,10.2,7,20.1,12.2,29.4l-26.7,26.7l56.6,56.6l26.7-26.7c9.3,5.2,19.2,9.2,29.4,12.2v37.8h80v-37.8c10.2-3,20.1-7,29.4-12.2
				l26.7,26.7l56.6-56.6L374,389c5.2-9.3,9.2-19.2,12.2-29.4H424v-80h-37.8C383.2,269.3,379.2,259.5,374,250.1z M184,79.6
				c0-23,12.5-44.1,32-55.4v53.1L248,88l32-10.7V24.2c19.5,11.3,32,32.3,32,55.4c0,23.5-12.2,41.7-35.4,52.6l-4.6,2.2v129.2h16
				v-13.3c24.6,14.1,40,40.2,40,69.3c0,29.5-16.1,55.3-40,69.2V279.6h-16v116.3c-7.6,2.4-15.6,3.7-24,3.7s-16.4-1.3-24-3.7V134.4
				l-4.6-2.2C196.2,121.2,184,103,184,79.6z M408,343.6h-34.2l-1.5,6.1c-3.1,12.9-8.2,25.1-15.1,36.4l-3.3,5.4l24.2,24.2l-33.9,33.9
				l-24.2-24.2l-5.4,3.3c-11.3,6.9-23.6,12-36.4,15.1l-6.1,1.5v34.2h-48v-34.2l-6.1-1.5c-12.9-3.1-25.1-8.2-36.4-15.1l-5.4-3.3
				l-24.2,24.2l-33.9-33.9l24.2-24.2l-3.3-5.4c-6.9-11.3-12-23.6-15.1-36.4l-1.5-6.1H88v-48h34.2l1.5-6.1
				c3.1-12.9,8.2-25.1,15.1-36.4l3.3-5.4l-24.2-24.2l33.9-33.9l24.2,24.2l5.4-3.3c8.4-5.1,17.3-9.2,26.6-12.3v34.2
				c-34.2,15.6-56,49.3-56,87.2c0,52.9,43.1,96,96,96s96-43.1,96-96c0-38-21.8-71.6-56-87.2v-34.2c9.3,3.1,18.2,7.2,26.6,12.3
				l5.4,3.3l24.2-24.2l33.9,33.9l-24.2,24.2l3.3,5.4c6.9,11.3,12,23.6,15.1,36.4l1.5,6.1H408V343.6z M208,250.2v138.5
				c-23.9-13.9-40-39.6-40-69.2C168,290.4,183.4,264.4,208,250.2z"/>
			<path class="st1" d="M32,393V103.6c0-4.4,3.6-8,8-8h65.5c3.3,9.3,12.1,16,22.5,16c13.2,0,24-10.8,24-24s-10.8-24-24-24
				c-10.4,0-19.2,6.7-22.5,16H40c-13.2,0-24,10.8-24,24V393c-9.3,3.3-16,12.1-16,22.5c0,13.2,10.8,24,24,24s24-10.8,24-24
				C48,405.2,41.3,396.4,32,393z M128,79.6c4.4,0,8,3.6,8,8s-3.6,8-8,8s-8-3.6-8-8S123.6,79.6,128,79.6z M24,423.6c-4.4,0-8-3.6-8-8
				s3.6-8,8-8s8,3.6,8,8C32,420,28.4,423.6,24,423.6z"/>
			<rect x="48" y="111.6" class="st1" width="16" height="16"/>
			<rect x="48" y="143.6" class="st1" width="16" height="16"/>
			<rect x="48" y="175.6" class="st1" width="16" height="16"/>
			<path class="st1" d="M480,393V103.6c0-13.2-10.8-24-24-24h-65.5c-3.3-9.3-12.1-16-22.5-16c-13.2,0-24,10.8-24,24s10.8,24,24,24
				c10.4,0,19.2-6.7,22.5-16H456c4.4,0,8,3.6,8,8V393c-9.3,3.3-16,12.1-16,22.5c0,13.2,10.8,24,24,24s24-10.8,24-24
				C496,405.2,489.3,396.4,480,393z M368,95.6c-4.4,0-8-3.6-8-8s3.6-8,8-8s8,3.6,8,8S372.4,95.6,368,95.6z M472,423.6
				c-4.4,0-8-3.6-8-8s3.6-8,8-8s8,3.6,8,8C480,420,476.4,423.6,472,423.6z"/>
			<rect x="432" y="111.6" class="st1" width="16" height="16"/>
			<rect x="432" y="143.6" class="st1" width="16" height="16"/>
			<rect x="432" y="175.6" class="st1" width="16" height="16"/>
			<rect x="240" y="367.6" class="st0" width="16" height="16"/>
			<rect x="240" y="335.6" class="st0" width="16" height="16"/>
			<rect x="240" y="303.6" class="st0" width="16" height="16"/>
		</g>
	</g>
</g>
</svg>
