<?xml version="1.0" encoding="utf-8"?>
<!-- Generator: Adobe Illustrator 22.1.0, SVG Export Plug-In . SVG Version: 6.00 Build 0)  -->
<svg version="1.1" id="Layer_1" xmlns="http://www.w3.org/2000/svg" xmlns:xlink="http://www.w3.org/1999/xlink" x="0px" y="0px"
	 viewBox="0 0 463 463" style="enable-background:new 0 0 463 463;" xml:space="preserve">
<style type="text/css">
	.st0{fill:#666666;}
	.st1{fill:#00B4F0;}
</style>
<g>
	<path class="st0" d="M207.5,119h112c4.1,0,7.5-3.4,7.5-7.5s-3.4-7.5-7.5-7.5h-112c-4.1,0-7.5,3.4-7.5,7.5S203.4,119,207.5,119z"/>
	<path class="st0" d="M351.5,136h-144c-4.1,0-7.5,3.4-7.5,7.5s3.4,7.5,7.5,7.5h144c4.1,0,7.5-3.4,7.5-7.5S355.6,136,351.5,136z"/>
	<path class="st1" d="M170.2,98.2l-34.7,34.7l-18.7-18.7c-2.9-2.9-7.7-2.9-10.6,0c-2.9,2.9-2.9,7.7,0,10.6l24,24
		c1.5,1.5,3.4,2.2,5.3,2.2s3.8-0.7,5.3-2.2l40-40c2.9-2.9,2.9-7.7,0-10.6C177.9,95.3,173.1,95.3,170.2,98.2z"/>
	<path class="st0" d="M207.5,199h112c4.1,0,7.5-3.4,7.5-7.5s-3.4-7.5-7.5-7.5h-112c-4.1,0-7.5,3.4-7.5,7.5S203.4,199,207.5,199z"/>
	<path class="st0" d="M351.5,216h-144c-4.1,0-7.5,3.4-7.5,7.5s3.4,7.5,7.5,7.5h144c4.1,0,7.5-3.4,7.5-7.5S355.6,216,351.5,216z"/>
	<path class="st1" d="M170.2,178.2l-34.7,34.7l-18.7-18.7c-2.9-2.9-7.7-2.9-10.6,0c-2.9,2.9-2.9,7.7,0,10.6l24,24
		c1.5,1.5,3.4,2.2,5.3,2.2s3.8-0.7,5.3-2.2l40-40c2.9-2.9,2.9-7.7,0-10.6C177.9,175.3,173.1,175.3,170.2,178.2L170.2,178.2z"/>
	<path class="st0" d="M207.5,279h112c4.1,0,7.5-3.4,7.5-7.5s-3.4-7.5-7.5-7.5h-112c-4.1,0-7.5,3.4-7.5,7.5S203.4,279,207.5,279z"/>
	<path class="st0" d="M351.5,296h-144c-4.1,0-7.5,3.4-7.5,7.5s3.4,7.5,7.5,7.5h144c4.1,0,7.5-3.4,7.5-7.5S355.6,296,351.5,296z"/>
	<path class="st1" d="M170.2,258.2l-34.7,34.7l-18.7-18.7c-2.9-2.9-7.7-2.9-10.6,0c-2.9,2.9-2.9,7.7,0,10.6l24,24
		c1.5,1.5,3.4,2.2,5.3,2.2s3.8-0.7,5.3-2.2l40-40c2.9-2.9,2.9-7.7,0-10.6C177.9,255.3,173.1,255.3,170.2,258.2z"/>
	<path class="st0" d="M207.5,359h112c4.1,0,7.5-3.4,7.5-7.5s-3.4-7.5-7.5-7.5h-112c-4.1,0-7.5,3.4-7.5,7.5S203.4,359,207.5,359z"/>
	<path class="st0" d="M351.5,376h-144c-4.1,0-7.5,3.4-7.5,7.5s3.4,7.5,7.5,7.5h144c4.1,0,7.5-3.4,7.5-7.5S355.6,376,351.5,376z"/>
	<path class="st1" d="M170.2,338.2l-34.7,34.7l-18.7-18.7c-2.9-2.9-7.7-2.9-10.6,0c-2.9,2.9-2.9,7.7,0,10.6l24,24
		c1.5,1.5,3.4,2.2,5.3,2.2s3.8-0.7,5.3-2.2l40-40c2.9-2.9,2.9-7.7,0-10.6C177.9,335.3,173.1,335.3,170.2,338.2z"/>
</g>
<g>
	<path class="st0" d="M376.8,30c4.5,0,8.2,3.7,8.2,8.2v402.6c0,4.5-3.7,8.2-8.2,8.2H86.2c-4.5,0-8.2-3.7-8.2-8.2V38.2
		c0-4.5,3.7-8.2,8.2-8.2H376.8 M376.8,16H86.2C73.9,16,64,25.9,64,38.2v402.6c0,12.3,9.9,22.2,22.2,22.2h290.6
		c12.3,0,22.2-9.9,22.2-22.2V38.2C399,25.9,389.1,16,376.8,16L376.8,16z"/>
</g>
</svg>
