<?xml version="1.0" encoding="utf-8"?>
<!-- Generator: Adobe Illustrator 22.1.0, SVG Export Plug-In . SVG Version: 6.00 Build 0)  -->
<svg version="1.1" id="Capa_1" xmlns="http://www.w3.org/2000/svg" xmlns:xlink="http://www.w3.org/1999/xlink" x="0px" y="0px"
	 viewBox="0 0 463.3 463.3" style="enable-background:new 0 0 463.3 463.3;" xml:space="preserve">
<style type="text/css">
	.st0{fill:#666666;}
	.st1{fill:#00B4F0;}
</style>
<g>
	<path class="st0" d="M269.5,399.2c-9.6,0-17.5,7.9-17.5,17.5s7.9,17.5,17.5,17.5h160.3c9.6,0,17.5-7.9,17.5-17.5V138.4
		c0-5-2-9.6-5.5-12.8L310.6,4.7C307.4,1.7,303,0,298.7,0H103.4C93.8,0,86,7.9,86,17.5v189.4c0,9.6,7.9,17.5,17.5,17.5
		s17.5-7.9,17.5-17.5V35h139.9v151.5c0,9.6,7.9,17.5,17.5,17.5h131.1c0.9,0,2,0,2.9-0.3v195.5L269.5,399.2L269.5,399.2z M409.4,169
		H295.8V38.5L412.3,146v23.3C411.4,169,410.3,169,409.4,169z"/>
</g>
<path class="st1" d="M16,373c0-9.6,7.9-17.5,17.5-17.5H86v-55.4c0-9.6,7.9-17.5,17.5-17.5s17.5,7.9,17.5,17.5v55.4h58.3
	c9.6,0,17.5,7.9,17.5,17.5s-7.9,17.5-17.5,17.5h-58.3v55.4c0,9.6-7.9,17.5-17.5,17.5S86,455.4,86,445.8v-55.4H33.5
	C23.9,390.5,16,382.6,16,373z"/>
</svg>
