<?xml version="1.0" encoding="utf-8"?>
<!-- Generator: Adobe Illustrator 22.1.0, SVG Export Plug-In . SVG Version: 6.00 Build 0)  -->
<svg version="1.1" id="Capa_1" xmlns="http://www.w3.org/2000/svg" xmlns:xlink="http://www.w3.org/1999/xlink" x="0px" y="0px"
	 viewBox="0 0 64 64" style="enable-background:new 0 0 64 64;" xml:space="preserve">
<style type="text/css">
	.st0{fill:#666666;}
	.st1{fill:#00B4F0;}
	.st2{fill:none;stroke:#666666;stroke-width:1.4164;stroke-linecap:round;stroke-linejoin:round;stroke-miterlimit:10;}
</style>
<g>
	<g>
		<rect x="37" y="24.6" class="st0" width="1.5" height="3.8"/>
		<rect x="40.1" y="24.6" class="st0" width="1.5" height="3.8"/>
		<rect x="37" y="30" class="st0" width="1.5" height="1.5"/>
		<rect x="40.1" y="30" class="st0" width="1.5" height="1.5"/>
		<rect x="31.6" y="33.1" class="st0" width="1.5" height="1.5"/>
		<rect x="27.8" y="48.4" class="st0" width="1.5" height="1.5"/>
		<rect x="40.1" y="33.1" class="st0" width="1.5" height="1.5"/>
		<rect x="37" y="36.2" class="st0" width="1.5" height="1.5"/>
		<rect x="40.1" y="36.2" class="st0" width="1.5" height="1.5"/>
		<path class="st0" d="M10.9,10.8V20c0,0.4,0.3,0.8,0.8,0.8h9.2c0.4,0,0.8-0.3,0.8-0.8v-9.2c0-0.4-0.3-0.8-0.8-0.8h-9.2
			C11.2,10.1,10.9,10.4,10.9,10.8z M12.4,11.6h7.7v7.7h-7.7V11.6z"/>
		<path class="st1" d="M17.8,13.1h-3.1c-0.4,0-0.8,0.3-0.8,0.8V17c0,0.4,0.3,0.8,0.8,0.8h3.1c0.4,0,0.8-0.3,0.8-0.8v-3.1
			C18.6,13.5,18.2,13.1,17.8,13.1z M17,16.2h-1.5v-1.5H17V16.2z"/>
		<path class="st0" d="M43.9,20.8h9.2c0.4,0,0.8-0.3,0.8-0.8v-9.2c0-0.4-0.3-0.8-0.8-0.8h-9.2c-0.4,0-0.8,0.3-0.8,0.8V20
			C43.1,20.5,43.5,20.8,43.9,20.8z M44.7,11.6h7.7v7.7h-7.7V11.6z"/>
		<path class="st1" d="M50,13.1H47c-0.4,0-0.8,0.3-0.8,0.8V17c0,0.4,0.3,0.8,0.8,0.8H50c0.4,0,0.8-0.3,0.8-0.8v-3.1
			C50.8,13.5,50.5,13.1,50,13.1z M49.3,16.2h-1.5v-1.5h1.5V16.2z"/>
		<path class="st0" d="M20.9,42.3h-9.2c-0.4,0-0.8,0.3-0.8,0.8v9.2c0,0.4,0.3,0.8,0.8,0.8h9.2c0.4,0,0.8-0.3,0.8-0.8v-9.2
			C21.6,42.6,21.3,42.3,20.9,42.3z M20.1,51.5h-7.7v-7.7h7.7V51.5z"/>
		<path class="st1" d="M14.7,50h3.1c0.4,0,0.8-0.3,0.8-0.8v-3.1c0-0.4-0.3-0.8-0.8-0.8h-3.1c-0.4,0-0.8,0.3-0.8,0.8v3.1
			C14,49.6,14.3,50,14.7,50z M15.5,46.9H17v1.5h-1.5V46.9z"/>
		<path class="st0" d="M41.6,21.6h-5.4v-9.2h-1.5v10c0,0.4,0.3,0.8,0.8,0.8h6.1V21.6z"/>
		<rect x="24.7" y="16.2" class="st0" width="5.4" height="1.5"/>
		<rect x="27.8" y="13.1" class="st0" width="5.4" height="1.5"/>
		<rect x="10.9" y="21.6" class="st0" width="1.5" height="6.9"/>
		<path class="st0" d="M21.6,26.2H14v1.5h6.9v3.1h1.5v-3.8C22.4,26.5,22.1,26.2,21.6,26.2z"/>
		<rect x="14.7" y="22.3" class="st0" width="1.5" height="1.5"/>
		<rect x="23.9" y="20.8" class="st0" width="1.5" height="6.1"/>
		<rect x="23.9" y="28.5" class="st0" width="6.9" height="1.5"/>
		<path class="st0" d="M53.9,29.2h-1.5v7.7H50v1.5h3.1c0.4,0,0.8-0.3,0.8-0.8V29.2z"/>
		<rect x="27.8" y="20.8" class="st0" width="1.5" height="1.5"/>
		<rect x="10.9" y="32.3" class="st0" width="1.5" height="6.1"/>
		<rect x="10.9" y="39.2" class="st0" width="6.9" height="1.5"/>
		<path class="st0" d="M46.2,28.5h1.5v-3.1c0-0.4-0.3-0.8-0.8-0.8h-3.8v1.5h3.1V28.5z"/>
		<rect x="14.7" y="32.3" class="st0" width="1.5" height="1.5"/>
		<rect x="23.2" y="31.5" class="st0" width="1.5" height="6.1"/>
		<rect x="23.2" y="39.2" class="st0" width="6.9" height="1.5"/>
		<rect x="14" y="36.2" class="st0" width="6.9" height="1.5"/>
		<rect x="23.9" y="46.9" class="st0" width="1.5" height="3.1"/>
		<rect x="23.2" y="43.8" class="st0" width="6.9" height="1.5"/>
		<path class="st0" d="M35.5,40.8v-3.8c0-0.4-0.3-0.8-0.8-0.8H27v1.5h6.9v3.1H35.5z"/>
		<rect x="27.8" y="31.5" class="st0" width="1.5" height="1.5"/>
		<rect x="19.3" y="33.1" class="st0" width="1.5" height="1.5"/>
		<rect x="52.3" y="47.7" class="st0" width="1.5" height="5.4"/>
		<rect x="49.3" y="51.5" class="st0" width="2.3" height="1.5"/>
		<rect x="49.3" y="46.9" class="st0" width="1.5" height="3.1"/>
		<path class="st0" d="M53.9,40.8c0-0.4-0.3-0.8-0.8-0.8h-8.4v1.5h7.7v4.6h1.5V40.8z"/>
		<path class="st0" d="M44.7,50v-3.8c0-0.4-0.3-0.8-0.8-0.8h-8.4v1.5h7.7V50H44.7z"/>
		<rect x="46.2" y="43.1" class="st0" width="5.4" height="1.5"/>
		<rect x="23.2" y="51.5" class="st0" width="5.4" height="1.5"/>
		<rect x="30.9" y="46.1" class="st0" width="1.5" height="6.9"/>
		<rect x="32.4" y="42.3" class="st0" width="3.1" height="1.5"/>
		<path class="st0" d="M43.9,34.6h3.8v-1.5h-3.1v-4.6h-1.5v5.4C43.1,34.3,43.5,34.6,43.9,34.6z"/>
		<rect x="46.2" y="30" class="st0" width="3.8" height="1.5"/>
		<rect x="49.3" y="22.3" class="st0" width="2.3" height="1.5"/>
		<rect x="52.3" y="22.3" class="st0" width="1.5" height="3.8"/>
		<rect x="49.3" y="26.2" class="st0" width="1.5" height="1.5"/>
		<path class="st0" d="M37.8,20.8h3.1c0.4,0,0.8-0.3,0.8-0.8v-10h-1.5v9.2h-2.3V20.8z"/>
		<path class="st0" d="M26.2,11.6h11.5v-1.5H25.5c-0.4,0-0.8,0.3-0.8,0.8v3.8h1.5V11.6z"/>
		<path class="st0" d="M27,25.4h5.4c0.4,0,0.8-0.3,0.8-0.8v-6.1h-1.5v5.4H27V25.4z"/>
		<rect x="33.9" y="24.6" class="st0" width="1.5" height="3.1"/>
		<rect x="35.5" y="48.4" class="st0" width="5.4" height="1.5"/>
		<rect x="35.5" y="51.5" class="st0" width="6.9" height="1.5"/>
		<path class="st0" d="M46.2,51.5h-1.5V53H47c0.4,0,0.8-0.3,0.8-0.8v-6.1h-1.5V51.5z"/>
		<rect x="20.1" y="39.2" class="st0" width="1.5" height="1.5"/>
		<rect x="37.8" y="39.2" class="st0" width="3.1" height="1.5"/>
		<rect x="43.1" y="36.2" class="st0" width="1.5" height="2.3"/>
		<rect x="42.4" y="40" class="st0" width="1.5" height="1.5"/>
		<rect x="37.8" y="42.3" class="st0" width="2.3" height="1.5"/>
		<rect x="46.2" y="36.2" class="st0" width="1.5" height="1.5"/>
		<rect x="49.3" y="33.1" class="st0" width="2.3" height="1.5"/>
		<rect x="34.7" y="33.1" class="st0" width="3.8" height="1.5"/>
		<rect x="33.9" y="29.2" class="st0" width="1.5" height="2.3"/>
	</g>
	<polyline class="st2" points="58.9,49.1 58.9,58.6 49.3,58.6 	"/>
	<polyline class="st2" points="61.9,45.2 61.9,61.5 45.3,61.5 	"/>
	<polyline class="st2" points="14.3,58.7 4.8,58.7 4.8,49 	"/>
	<polyline class="st2" points="18.2,61.6 1.8,61.6 1.8,45.1 	"/>
	<polyline class="st2" points="4.7,13.9 4.7,4.4 14.3,4.4 	"/>
	<polyline class="st2" points="1.7,17.8 1.7,1.4 18.3,1.4 	"/>
	<polyline class="st2" points="49.8,4.3 59.3,4.3 59.3,13.9 	"/>
	<polyline class="st2" points="45.9,1.3 62.3,1.3 62.3,17.9 	"/>
</g>
</svg>
